<svg xmlns="http://www.w3.org/2000/svg" xmlns:xlink="http://www.w3.org/1999/xlink" viewBox="0 0 210 210"><defs><style>.cls-1{stroke:#00936f;stroke-width:10px;fill:url(#Unbenannter_Verlauf_95);}.cls-1,.cls-3,.cls-4,.cls-5{stroke-miterlimit:10;}.cls-2{fill:#00936f;}.cls-3{fill:none;stroke:#1d1d1b;}.cls-3,.cls-4,.cls-5{stroke-width:2px;}.cls-4,.cls-5{stroke:#95ceb9;}.cls-4{fill:url(#Unbenannter_Verlauf_70);}.cls-5{fill:url(#Unbenannter_Verlauf_70-2);}.cls-6{fill:url(#Unbenannter_Verlauf_92);}.cls-7{fill:#1d1d1b;}.cls-8{fill:#fff;}.cls-9{fill:url(#Unbenannter_Verlauf_92-2);}.cls-10{fill:url(#Unbenannter_Verlauf_88);}.cls-11{fill:url(#Unbenannter_Verlauf_88-2);}</style><radialGradient id="Unbenannter_Verlauf_95" cx="104.4" cy="94.47" r="103.72" gradientTransform="translate(0.04 17.37) scale(1.01 0.93)" gradientUnits="userSpaceOnUse"><stop offset="0" stop-color="#94ceb9"/><stop offset="0.19" stop-color="#6dc1a6"/><stop offset="0.45" stop-color="#41b290"/><stop offset="0.68" stop-color="#21a880"/><stop offset="0.87" stop-color="#0da176"/><stop offset="1" stop-color="#069f73"/></radialGradient><radialGradient id="Unbenannter_Verlauf_70" cx="62.9" cy="81.03" r="42.14" gradientUnits="userSpaceOnUse"><stop offset="0" stop-color="#fff"/><stop offset="0.45" stop-color="#fdfdfd"/><stop offset="0.61" stop-color="#f6f6f6"/><stop offset="0.73" stop-color="#ebebeb"/><stop offset="0.82" stop-color="#dadada"/><stop offset="0.9" stop-color="#c4c4c4"/><stop offset="0.97" stop-color="#aaaaa9"/><stop offset="1" stop-color="#9b9b9a"/></radialGradient><radialGradient id="Unbenannter_Verlauf_70-2" cx="147.19" cy="81.03" r="42.14" xlink:href="#Unbenannter_Verlauf_70"/><radialGradient id="Unbenannter_Verlauf_92" cx="147.19" cy="69.08" r="30.2" gradientUnits="userSpaceOnUse"><stop offset="0" stop-color="#8dcbb4"/><stop offset="0.22" stop-color="#8acab3"/><stop offset="0.39" stop-color="#80c7ae"/><stop offset="0.54" stop-color="#70c2a6"/><stop offset="0.67" stop-color="#59bb9b"/><stop offset="0.81" stop-color="#3cb28d"/><stop offset="0.93" stop-color="#18a77c"/><stop offset="1" stop-color="#00a070"/></radialGradient><radialGradient id="Unbenannter_Verlauf_92-2" cx="62.9" cy="69.08" r="30.2" xlink:href="#Unbenannter_Verlauf_92"/><radialGradient id="Unbenannter_Verlauf_88" cx="171.66" cy="137.65" r="22.52" gradientTransform="translate(0 68.71) scale(1 0.5)" gradientUnits="userSpaceOnUse"><stop offset="0" stop-color="#8dcbb4"/><stop offset="0.15" stop-color="#7ec6ad"/><stop offset="0.45" stop-color="#57bb9a"/><stop offset="0.85" stop-color="#19a87c"/><stop offset="1" stop-color="#00a070"/></radialGradient><radialGradient id="Unbenannter_Verlauf_88-2" cx="43.15" cy="137.65" r="22.52" xlink:href="#Unbenannter_Verlauf_88"/></defs><g id="Ebene_2" data-name="Ebene 2"><g id="Ebene_1-2" data-name="Ebene 1"><rect class="cls-1" x="5" y="5" width="200" height="200" rx="37.72"/><circle class="cls-2" cx="145.95" cy="76.23" r="45.49"/><circle class="cls-2" cx="59.95" cy="78.28" r="45.49"/><path class="cls-2" d="M81.72,151.46A146.75,146.75,0,0,0,94.4,161.6a32.25,32.25,0,0,0,6.19,3.31,16.06,16.06,0,0,0,5.92,1.17,16.47,16.47,0,0,0,5.88-1.16,37.4,37.4,0,0,0,6.14-3.39c4.18-2.8,8.16-6.5,12.84-10.07a38.36,38.36,0,0,1-1.09,4.25c-.44,1.39-1,2.72-1.62,4.07s-1.38,2.59-2.12,3.88c-.38.64-.85,1.23-1.29,1.84a21.75,21.75,0,0,1-1.39,1.81,27.25,27.25,0,0,1-3.32,3.3,26.67,26.67,0,0,1-4,2.83,20.37,20.37,0,0,1-20.06,0,26.74,26.74,0,0,1-7.36-6,33,33,0,0,1-4.85-7.54A28,28,0,0,1,81.72,151.46Z"/><path class="cls-3" d="M81.72,151.46s22.69,44.21,49.65,0"/><circle class="cls-4" cx="62.9" cy="81.03" r="42.14"/><circle class="cls-5" cx="147.19" cy="81.03" r="42.14"/><circle class="cls-6" cx="147.19" cy="69.08" r="30.2"/><circle class="cls-7" cx="154.2" cy="69.08" r="23.19"/><circle class="cls-8" cx="159.88" cy="76.23" r="11.99"/><circle class="cls-8" cx="143.9" cy="63.09" r="5.99"/><circle class="cls-9" cx="62.9" cy="69.08" r="30.2"/><circle class="cls-7" cx="69.91" cy="69.08" r="23.19"/><circle class="cls-8" cx="77.66" cy="76.23" r="11.99"/><circle class="cls-8" cx="61.68" cy="63.09" r="5.99"/><ellipse class="cls-10" cx="171.66" cy="137.65" rx="28.69" ry="13.81"/><ellipse class="cls-11" cx="43.15" cy="137.65" rx="28.69" ry="13.81"/></g></g></svg>