<svg xmlns="http://www.w3.org/2000/svg" xmlns:xlink="http://www.w3.org/1999/xlink" viewBox="0 0 281.77 170.49"><defs><style>.cls-1{fill:url(#Unbenannter_Verlauf_9);}.cls-2{fill:url(#Unbenannter_Verlauf_5);}.cls-3{fill:url(#Unbenannter_Verlauf_5-2);}.cls-4{fill:#d7543d;}.cls-5{fill:url(#Unbenannter_Verlauf_4);}.cls-6{fill:#ebae97;}.cls-17,.cls-7{fill:none;}.cls-7{stroke:#1e1e1c;}.cls-17,.cls-18,.cls-7,.cls-8{stroke-miterlimit:10;stroke-width:2px;}.cls-10,.cls-18,.cls-8{fill:#fff;}.cls-8{stroke:#ebae97;}.cls-9{fill:#1e1e1c;}.cls-11{fill:#f0e443;}.cls-12{fill:url(#Unbenannter_Verlauf_30);}.cls-13{fill:url(#Unbenannter_Verlauf_30-2);}.cls-14{fill:url(#Unbenannter_Verlauf_30-3);}.cls-15{fill:url(#amarillo);}.cls-16{fill:#f4f1b1;}.cls-17{stroke:#1d1d1b;}.cls-18{stroke:#f4f1b1;}.cls-19{fill:#1d1d1b;}</style><linearGradient id="Unbenannter_Verlauf_9" x1="59.41" y1="15.57" x2="64.13" y2="-0.82" gradientTransform="matrix(0.96, 0.29, 0.29, -0.96, 0.9, 7.32)" gradientUnits="userSpaceOnUse"><stop offset="0" stop-color="#ebae97"/><stop offset="0.26" stop-color="#e48d76"/><stop offset="0.57" stop-color="#dc6d57"/><stop offset="0.82" stop-color="#da5a44"/><stop offset="1" stop-color="#d7543d"/></linearGradient><linearGradient id="Unbenannter_Verlauf_5" x1="89.07" y1="15.64" x2="85.52" y2="2.27" gradientTransform="matrix(0.27, 0.96, 0.96, -0.27, 57.01, -62.07)" gradientUnits="userSpaceOnUse"><stop offset="0" stop-color="#ebae97"/><stop offset="1" stop-color="#d7543d"/></linearGradient><linearGradient id="Unbenannter_Verlauf_5-2" x1="73.65" y1="22.09" x2="74.64" y2="7.43" gradientTransform="matrix(1, 0, 0, -1, 0, 25.72)" xlink:href="#Unbenannter_Verlauf_5"/><radialGradient id="Unbenannter_Verlauf_4" cx="75.03" cy="-53.63" r="52.8" gradientTransform="matrix(1, 0, 0, -1, 0, 25.72)" xlink:href="#Unbenannter_Verlauf_5"/><linearGradient id="Unbenannter_Verlauf_30" x1="209.34" y1="14.25" x2="213.26" y2="25.23" gradientTransform="translate(15.45 -60.92) rotate(16.97)" gradientUnits="userSpaceOnUse"><stop offset="0" stop-color="#f4f1b1"/><stop offset="0.04" stop-color="#f4f0aa"/><stop offset="0.35" stop-color="#f2eb7e"/><stop offset="0.62" stop-color="#f0e75e"/><stop offset="0.84" stop-color="#efe54a"/><stop offset="1" stop-color="#efe443"/></linearGradient><linearGradient id="Unbenannter_Verlauf_30-2" x1="239.24" y1="13.75" x2="235.06" y2="24.47" gradientTransform="translate(192.4 -211.86) rotate(74.19)" xlink:href="#Unbenannter_Verlauf_30"/><linearGradient id="Unbenannter_Verlauf_30-3" x1="224.13" y1="7.02" x2="224.13" y2="20.88" gradientTransform="matrix(1, 0, 0, 1, 0, 0)" xlink:href="#Unbenannter_Verlauf_30"/><radialGradient id="amarillo" cx="224.76" cy="81.13" r="52.82" gradientTransform="matrix(1, 0, 0, 1, 0, 0)" xlink:href="#Unbenannter_Verlauf_30"/></defs><g id="Ebene_2" data-name="Ebene 2"><g id="Ebene_1-2" data-name="Ebene 1"><ellipse class="cls-1" cx="62.11" cy="19.52" rx="5.72" ry="12.25" transform="translate(-2.99 18.98) rotate(-16.97)"/><ellipse class="cls-2" cx="86.56" cy="19.53" rx="12.25" ry="5.72" transform="translate(44.19 97.49) rotate(-74.19)"/><ellipse class="cls-3" cx="74.4" cy="14.61" rx="5.72" ry="14.61"/><ellipse class="cls-4" cx="61.02" cy="134.14" rx="5.8" ry="34.56"/><ellipse class="cls-4" cx="89.04" cy="134.14" rx="5.8" ry="34.56"/><ellipse class="cls-4" cx="126.14" cy="93.22" rx="5.8" ry="34.56" transform="translate(-30.65 97.42) rotate(-38)"/><ellipse class="cls-4" cx="19.2" cy="72.98" rx="5.8" ry="34.56" transform="translate(-36.2 21.74) rotate(-32.49)"/><circle class="cls-5" cx="75.03" cy="79.35" r="52.8"/><ellipse class="cls-6" cx="43.98" cy="93.22" rx="14.05" ry="6.76"/><path class="cls-7" d="M62.87,100S74,121.64,87.19,100"/><circle class="cls-8" cx="53.65" cy="65.49" r="20.64"/><circle class="cls-8" cx="94.94" cy="65.49" r="20.64"/><circle class="cls-6" cx="58.77" cy="66.96" r="14.79"/><circle class="cls-9" cx="62.2" cy="66.96" r="11.36"/><circle class="cls-6" cx="100.79" cy="66.96" r="14.79"/><circle class="cls-9" cx="104.22" cy="66.96" r="11.36"/><circle class="cls-10" cx="107" cy="70.46" r="5.87"/><circle class="cls-10" cx="99.18" cy="64.03" r="2.94"/><circle class="cls-10" cx="66" cy="70.46" r="5.87"/><circle class="cls-10" cx="58.17" cy="64.03" r="2.94"/><ellipse class="cls-6" cx="106.92" cy="93.22" rx="14.05" ry="6.76"/><ellipse class="cls-11" cx="210.75" cy="135.92" rx="5.8" ry="34.56"/><ellipse class="cls-11" cx="238.77" cy="135.92" rx="5.8" ry="34.56"/><ellipse class="cls-12" cx="211.86" cy="21.3" rx="5.72" ry="12.25" transform="translate(3.01 62.78) rotate(-16.97)"/><ellipse class="cls-13" cx="236.3" cy="21.3" rx="12.25" ry="5.72" transform="translate(151.42 242.85) rotate(-74.19)"/><ellipse class="cls-14" cx="224.13" cy="16.39" rx="5.72" ry="14.61"/><ellipse class="cls-11" cx="273.54" cy="101.76" rx="5.8" ry="34.56" transform="translate(-13.39 48.38) rotate(-9.87)"/><ellipse class="cls-11" cx="171.95" cy="100.15" rx="34.56" ry="5.8" transform="translate(-12.83 173.98) rotate(-52)"/><circle class="cls-15" cx="224.76" cy="81.13" r="52.8"/><ellipse class="cls-16" cx="193.71" cy="95" rx="14.05" ry="6.76"/><path class="cls-17" d="M212.6,101.76s11.11,21.66,24.32,0"/><circle class="cls-18" cx="203.38" cy="67.27" r="20.64"/><circle class="cls-18" cx="244.67" cy="67.27" r="20.64"/><circle class="cls-16" cx="239.55" cy="67.27" r="14.79"/><circle class="cls-19" cx="236.98" cy="67.27" r="11.36"/><circle class="cls-10" cx="239.77" cy="70.77" r="5.87"/><circle class="cls-10" cx="231.94" cy="64.33" r="2.94"/><circle class="cls-16" cx="197.81" cy="67.59" r="14.79"/><circle class="cls-19" cx="195.25" cy="67.59" r="11.36"/><circle class="cls-10" cx="199.04" cy="71.09" r="5.87"/><circle class="cls-10" cx="191.21" cy="64.65" r="2.94"/><ellipse class="cls-16" cx="256.65" cy="95" rx="14.05" ry="6.76"/></g></g></svg>