<svg xmlns="http://www.w3.org/2000/svg" viewBox="0 0 219.62 207.2"><defs><style>.cls-1{fill:#d7523d;}.cls-2{fill:#1d1d1b;}.cls-3{fill:#469b76;}.cls-4{fill:#eee362;}.cls-5{fill:#2f74af;}.cls-6{fill:#581f47;}</style></defs><g id="Ebene_2" data-name="Ebene 2"><g id="Ebene_1-2" data-name="Ebene 1"><ellipse class="cls-1" cx="81.02" cy="99.75" rx="11.88" ry="23.77" transform="translate(-40.6 141.25) rotate(-69.75)"/><path class="cls-2" d="M85.2,88.41c4.47,1.76,9,3.46,13.2,6.31a18.5,18.5,0,0,1,5.39,5.5,11.54,11.54,0,0,1,1.53,3.88,7.59,7.59,0,0,1-3.23,7.83,12,12,0,0,1-3.68,1.62,26.29,26.29,0,0,1-7.44.69,60.6,60.6,0,0,1-14.44-2.31,45.56,45.56,0,0,1-6.94-2.63,33.79,33.79,0,0,1-6.35-4A22.67,22.67,0,0,1,58,99.44a12.39,12.39,0,0,1-1.6-4,8.25,8.25,0,0,1,3.18-8.4,12.08,12.08,0,0,1,3.79-1.91,19.65,19.65,0,0,1,7.73-.58C76.09,85.15,80.68,86.8,85.2,88.41Zm-.14.38a30.92,30.92,0,0,0-7-1.62,31.73,31.73,0,0,0-7,.07,24,24,0,0,0-6.43,1.57,9.59,9.59,0,0,0-2.51,1.47,5.49,5.49,0,0,0-1.42,2,5.55,5.55,0,0,0-.13,2.42,9.56,9.56,0,0,0,1,2.69,20,20,0,0,0,4.1,5,47.73,47.73,0,0,0,11.59,7.49A37.81,37.81,0,0,0,84,112.2a28.65,28.65,0,0,0,7,.75,17.47,17.47,0,0,0,6.7-1.47,10,10,0,0,0,2.64-1.75,6,6,0,0,0,1.44-2.33,6.33,6.33,0,0,0,0-2.64,10.22,10.22,0,0,0-1.09-2.78,26.07,26.07,0,0,0-4-5.33,31.88,31.88,0,0,0-5.33-4.6A29.76,29.76,0,0,0,85.06,88.79Z"/><circle class="cls-1" cx="42.03" cy="88.3" r="39.92"/><path class="cls-2" d="M55.91,50.66l3.64,1.52c1.17.59,2.3,1.25,3.48,1.85s2.21,1.43,3.32,2.14,2.07,1.63,3.12,2.44a41.49,41.49,0,0,1,10,12.45,37.73,37.73,0,0,1,4.26,15.6,38.46,38.46,0,0,1-2.63,16,41,41,0,0,1-8.89,13.47c-1,.93-2,1.8-3,2.71S67,120.47,66,121.26l-3.4,2.11L59,125.15a43.37,43.37,0,0,1-31.19,1.64,40.09,40.09,0,0,1-23.77-21A42.19,42.19,0,0,1,.05,90,40.43,40.43,0,0,1,11.3,59.9a38.35,38.35,0,0,1,13.46-9A43.46,43.46,0,0,1,55.91,50.66Zm-.14.37L52,49.91c-1.27-.27-2.54-.51-3.82-.74s-2.58-.21-3.87-.31-2.59.06-3.87.1a38.12,38.12,0,0,0-14.62,4.28,40.81,40.81,0,0,0-19.29,22,38.91,38.91,0,0,0,.91,29,40,40,0,0,0,21.11,20.5,37.55,37.55,0,0,0,15,2.78A36.78,36.78,0,0,0,58.47,124c1.14-.6,2.26-1.23,3.38-1.85S64,120.69,65,119.93s2-1.65,2.9-2.51,1.78-1.83,2.62-2.78a39.13,39.13,0,0,0,7.39-13.1,42.59,42.59,0,0,0-.78-29.43,38.48,38.48,0,0,0-8.36-12.75c-1-.86-1.88-1.77-2.89-2.59s-2.07-1.55-3.15-2.27-2.25-1.3-3.39-1.91Z"/><ellipse class="cls-3" cx="92.94" cy="131.79" rx="23.77" ry="11.88" transform="translate(-68.09 123.2) rotate(-51.75)"/><path class="cls-2" d="M83.45,124.31c3-3.71,6.08-7.53,10.08-10.61a18.67,18.67,0,0,1,6.89-3.43,11.74,11.74,0,0,1,4.16-.25,8.52,8.52,0,0,1,4.11,1.79,8.42,8.42,0,0,1,2.34,3.71,12,12,0,0,1,.42,4,26.09,26.09,0,0,1-1.66,7.29,59.94,59.94,0,0,1-6.66,13,45.72,45.72,0,0,1-4.63,5.79,34.6,34.6,0,0,1-5.82,4.79,22.66,22.66,0,0,1-7.15,3.21,12.36,12.36,0,0,1-4.28.3,9.2,9.2,0,0,1-4.34-1.78,9.06,9.06,0,0,1-2.67-3.84,12.2,12.2,0,0,1-.64-4.2,19.55,19.55,0,0,1,1.84-7.53C77.53,132,80.52,128.11,83.45,124.31Zm.31.25a31.1,31.1,0,0,0-3.68,6.11A31.45,31.45,0,0,0,78,137.38a23.77,23.77,0,0,0-.49,6.59,9.3,9.3,0,0,0,.62,2.85,5.43,5.43,0,0,0,1.45,2,5.54,5.54,0,0,0,2.26.87,9.34,9.34,0,0,0,2.86-.13,20,20,0,0,0,6-2.35,47.94,47.94,0,0,0,10.7-8.7,37.74,37.74,0,0,0,4.27-5.63,27.46,27.46,0,0,0,2.88-6.43,17.4,17.4,0,0,0,.68-6.83,9.73,9.73,0,0,0-.85-3,5.94,5.94,0,0,0-1.77-2.1,6.14,6.14,0,0,0-2.5-.85,10.49,10.49,0,0,0-3,.16,26.44,26.44,0,0,0-6.29,2.14,32.39,32.39,0,0,0-6,3.64A30.22,30.22,0,0,0,83.76,124.56Z"/><circle class="cls-3" cx="70" cy="165.33" r="39.92"/><path class="cls-2" d="M38.49,140.5l2.57-3c.93-.93,1.91-1.81,2.84-2.74s2-1.66,3.06-2.5,2.19-1.46,3.29-2.21a41.51,41.51,0,0,1,14.91-5.62,37.52,37.52,0,0,1,16.15.78,38.27,38.27,0,0,1,14.44,7.45,41,41,0,0,1,10.06,12.61c.59,1.2,1.1,2.45,1.66,3.67s.85,2.53,1.28,3.79l1,3.88.59,3.94a43.41,43.41,0,0,1-8.08,30.17,40.12,40.12,0,0,1-27.3,16.12,42,42,0,0,1-16.31-1.09,40.43,40.43,0,0,1-25.12-20,38.39,38.39,0,0,1-4.44-15.6A43.47,43.47,0,0,1,38.49,140.5Zm.32.24L36.59,144c-.66,1.12-1.28,2.26-1.89,3.4s-1,2.39-1.49,3.58-.75,2.48-1.1,3.72a37.94,37.94,0,0,0-.44,15.22A40.8,40.8,0,0,0,46.61,195a38.92,38.92,0,0,0,27.87,8.1,39.9,39.9,0,0,0,26-13.74A37.71,37.71,0,0,0,107.77,176,36.67,36.67,0,0,0,109,160.71c-.22-1.26-.47-2.52-.72-3.78s-.7-2.47-1.1-3.68-1-2.37-1.5-3.53-1.18-2.26-1.83-3.35a39,39,0,0,0-10.17-11.08,42.58,42.58,0,0,0-28.23-8.36,38.59,38.59,0,0,0-14.71,4c-1.12.64-2.27,1.24-3.36,1.94s-2.11,1.5-3.13,2.3-1.93,1.74-2.87,2.64Z"/><ellipse class="cls-4" cx="127.05" cy="132.6" rx="11.88" ry="23.77" transform="translate(-52.26 92.94) rotate(-33.75)"/><path class="cls-2" d="M117,139.32c-2.58-4-5.28-8.11-7-12.86a18.42,18.42,0,0,1-1.13-7.62,11.5,11.5,0,0,1,1-4,8.61,8.61,0,0,1,3-3.35,8.46,8.46,0,0,1,4.25-1.08,12,12,0,0,1,3.93.84,26.07,26.07,0,0,1,6.42,3.83,60.22,60.22,0,0,1,10.33,10.35,47,47,0,0,1,4.07,6.2,34.66,34.66,0,0,1,2.76,7,22.59,22.59,0,0,1,.84,7.8,12.24,12.24,0,0,1-1,4.15,8.21,8.21,0,0,1-7.51,4.93,12.2,12.2,0,0,1-4.19-.68,19.66,19.66,0,0,1-6.59-4.08C122.45,147.31,119.71,143.28,117,139.32Zm.33-.23a31.36,31.36,0,0,0,4.68,5.4,31,31,0,0,0,5.73,4.08,23.9,23.9,0,0,0,6.12,2.51,9.8,9.8,0,0,0,2.89.28,4.32,4.32,0,0,0,3.84-2.65,9.63,9.63,0,0,0,.77-2.77,20.07,20.07,0,0,0-.37-6.46,48.41,48.41,0,0,0-5-12.87,38.52,38.52,0,0,0-4-5.8,28,28,0,0,0-5.23-4.73,17.57,17.57,0,0,0-6.29-2.75,9.44,9.44,0,0,0-3.16-.13,5.73,5.73,0,0,0-2.54,1,6.13,6.13,0,0,0-1.59,2.11,10.75,10.75,0,0,0-.76,2.89,26.46,26.46,0,0,0,.08,6.64,32.68,32.68,0,0,0,1.61,6.86A29.93,29.93,0,0,0,117.33,139.09Z"/><circle class="cls-4" cx="151.86" cy="164.78" r="39.92"/><path class="cls-2" d="M118.5,187.08l-2-3.37c-.61-1.17-1.13-2.37-1.73-3.54s-1-2.46-1.43-3.69-.71-2.54-1.1-3.81a41.74,41.74,0,0,1-.73-15.92,37.69,37.69,0,0,1,5.73-15.12,38.5,38.5,0,0,1,11.55-11.43,40.92,40.92,0,0,1,15.1-5.66c1.33-.2,2.67-.3,4-.45s2.68,0,4,0l4,.29,3.93.66A43.31,43.31,0,0,1,186,142a40.07,40.07,0,0,1,6.89,30.95,42,42,0,0,1-6.07,15.18A40.45,40.45,0,0,1,160,205.83a38.49,38.49,0,0,1-16.21-.6A43.47,43.47,0,0,1,118.5,187.08Zm.33-.23,2.36,3.11c.87,1,1.76,1.91,2.66,2.84s2,1.69,3,2.53,2.12,1.47,3.19,2.19a38,38,0,0,0,14.34,5.13,40.84,40.84,0,0,0,28.53-6.45,38.92,38.92,0,0,0,16.31-24,40,40,0,0,0-5-29,37.87,37.87,0,0,0-10.49-11.06,36.77,36.77,0,0,0-14.14-5.89c-1.27-.18-2.55-.33-3.82-.49s-2.56-.1-3.84-.09-2.56.19-3.82.34-2.51.42-3.75.7A39.28,39.28,0,0,0,130.6,133a42.63,42.63,0,0,0-16.66,24.27,38.62,38.62,0,0,0-.73,15.23c.26,1.26.48,2.54.81,3.79s.77,2.48,1.21,3.7,1.06,2.37,1.63,3.53Z"/><ellipse class="cls-5" cx="139.41" cy="100.74" rx="23.77" ry="11.88" transform="translate(-22.12 41.64) rotate(-15.75)"/><path class="cls-2" d="M142.69,112.37c-4.65,1.21-9.34,2.52-14.39,2.66a18.54,18.54,0,0,1-7.59-1.28,11.32,11.32,0,0,1-3.52-2.25,8.38,8.38,0,0,1-2.26-3.85,8.28,8.28,0,0,1,.28-4.38,11.74,11.74,0,0,1,2-3.47,26.36,26.36,0,0,1,5.62-4.93,60.14,60.14,0,0,1,13-6.62,46.71,46.71,0,0,1,7.16-2,34.23,34.23,0,0,1,7.52-.45,22.59,22.59,0,0,1,7.67,1.6,12.34,12.34,0,0,1,3.63,2.28,8.2,8.2,0,0,1,2.37,8.66,11.93,11.93,0,0,1-1.95,3.77,19.35,19.35,0,0,1-5.91,5C152,109.66,147.29,111,142.69,112.37Zm-.11-.38a30,30,0,0,0,12.23-7,24.08,24.08,0,0,0,4.27-5,9.49,9.49,0,0,0,1.17-2.66,4.33,4.33,0,0,0-1.34-4.47,9.3,9.3,0,0,0-2.39-1.59,20,20,0,0,0-6.26-1.64,47.94,47.94,0,0,0-13.78.75,37.32,37.32,0,0,0-6.76,2,27.92,27.92,0,0,0-6.12,3.51A17.63,17.63,0,0,0,119,101a9.76,9.76,0,0,0-1.1,3,5.87,5.87,0,0,0,.2,2.73,6.22,6.22,0,0,0,1.52,2.16,10.42,10.42,0,0,0,2.51,1.62,26.39,26.39,0,0,0,6.34,2,32.07,32.07,0,0,0,7,.59A30.18,30.18,0,0,0,142.58,112Z"/><circle class="cls-5" cx="177.68" cy="87.08" r="39.92"/><path class="cls-2" d="M188.57,125.7l-3.83.91c-1.29.21-2.6.34-3.9.54s-2.63.15-4,.22-2.63-.1-4-.13A41.42,41.42,0,0,1,157.56,123,37.57,37.57,0,0,1,145,112.89a38.47,38.47,0,0,1-7.3-14.51,41.17,41.17,0,0,1-.72-16.12c.22-1.32.54-2.63.81-3.94s.8-2.55,1.19-3.82l1.51-3.7,1.84-3.54a43.29,43.29,0,0,1,24.26-19.65,40,40,0,0,1,31.56,3,42.06,42.06,0,0,1,12.57,10.46A40.42,40.42,0,0,1,219.24,92a38.32,38.32,0,0,1-5.58,15.23A43.44,43.44,0,0,1,188.57,125.7Zm-.1-.39,3.68-1.28c1.18-.52,2.36-1.08,3.52-1.64s2.21-1.36,3.32-2,2-1.57,3.07-2.36a38.18,38.18,0,0,0,9.31-12,40.87,40.87,0,0,0,2.68-29.13,38.9,38.9,0,0,0-17.78-22.93,40,40,0,0,0-29.13-4.18,37.77,37.77,0,0,0-13.76,6.56,36.82,36.82,0,0,0-10,11.63c-.56,1.15-1.11,2.32-1.64,3.48s-.89,2.41-1.28,3.63-.61,2.48-.86,3.73-.37,2.52-.49,3.79a39.23,39.23,0,0,0,1.72,14.94,42.52,42.52,0,0,0,17.93,23.35,38.52,38.52,0,0,0,14.26,5.4c1.28.14,2.57.33,3.86.4s2.59,0,3.88,0,2.58-.28,3.87-.46Z"/><ellipse class="cls-6" cx="110.31" cy="82.68" rx="23.77" ry="11.88" transform="translate(23.38 189.66) rotate(-87.75)"/><path class="cls-2" d="M122.39,83.15c-.29,4.79-.49,9.66-1.92,14.5a18.82,18.82,0,0,1-3.56,6.83,11.65,11.65,0,0,1-3.22,2.65,8.48,8.48,0,0,1-4.37,1,8.34,8.34,0,0,1-4.08-1.62,11.93,11.93,0,0,1-2.68-3,26.57,26.57,0,0,1-3-6.88,60.07,60.07,0,0,1-2.27-14.44,47.22,47.22,0,0,1,.35-7.41,35,35,0,0,1,1.89-7.3,22.73,22.73,0,0,1,3.9-6.8,12.36,12.36,0,0,1,3.29-2.75,9.23,9.23,0,0,1,4.56-1.12,9,9,0,0,1,4.41,1.55,12,12,0,0,1,3,3,19.29,19.29,0,0,1,2.94,7.16C122.68,73.47,122.52,78.35,122.39,83.15Zm-.4,0a30.85,30.85,0,0,0-.62-7.11,31.5,31.5,0,0,0-2.23-6.67,24.16,24.16,0,0,0-3.48-5.62,9.74,9.74,0,0,0-2.17-1.94,4.38,4.38,0,0,0-4.67-.11,9.43,9.43,0,0,0-2.24,1.79,20.09,20.09,0,0,0-3.51,5.45,48.36,48.36,0,0,0-3.54,13.33,37.85,37.85,0,0,0-.15,7.06,27.47,27.47,0,0,0,1.46,6.9,17.31,17.31,0,0,0,3.46,5.92,9.52,9.52,0,0,0,2.49,2,6,6,0,0,0,2.66.66A6.37,6.37,0,0,0,112,104a10.59,10.59,0,0,0,2.31-1.89,26.43,26.43,0,0,0,3.84-5.42,32.48,32.48,0,0,0,2.73-6.49A29.91,29.91,0,0,0,122,83.13Z"/><circle class="cls-6" cx="109.15" cy="42.06" r="39.92"/><path class="cls-2" d="M149.24,43.63l-.32,3.92c-.2,1.3-.48,2.59-.69,3.89s-.67,2.54-1,3.82-.91,2.47-1.35,3.72a41.44,41.44,0,0,1-8.76,13.31,37.67,37.67,0,0,1-13.53,8.87,38.44,38.44,0,0,1-16.06,2.45A40.86,40.86,0,0,1,92,79.32c-1.19-.62-2.33-1.33-3.49-2S86.29,75.79,85.21,75l-3.06-2.58L79.36,69.6a43.36,43.36,0,0,1-11.2-29.15A40.1,40.1,0,0,1,80.77,11.36,41.93,41.93,0,0,1,94.61,2.65a40.39,40.39,0,0,1,32.06,1.4,38.45,38.45,0,0,1,12.76,10A43.41,43.41,0,0,1,149.24,43.63Zm-.4,0-.08-3.89c-.13-1.3-.3-2.58-.48-3.87s-.6-2.52-.9-3.78-.85-2.44-1.29-3.65a38,38,0,0,0-8.59-12.57A40.83,40.83,0,0,0,110.63,4.29a38.91,38.91,0,0,0-27.3,9.83,39.94,39.94,0,0,0-13,26.41,37.92,37.92,0,0,0,2,15.11,37,37,0,0,0,8,13.08c.93.89,1.87,1.77,2.81,2.64s2,1.59,3,2.33,2.18,1.35,3.29,2,2.28,1.14,3.45,1.64a39.11,39.11,0,0,0,14.74,3,42.56,42.56,0,0,0,27.75-9.83,38.54,38.54,0,0,0,9.54-11.9c.53-1.17,1.11-2.33,1.57-3.54s.84-2.45,1.19-3.7.54-2.54.77-3.82Z"/></g></g></svg>