<svg xmlns="http://www.w3.org/2000/svg" xmlns:xlink="http://www.w3.org/1999/xlink" viewBox="0 0 369.67 311.82"><defs><style>.cls-1{fill:url(#Unbenannter_Verlauf_9);}.cls-2{fill:url(#Unbenannter_Verlauf_5);}.cls-3{fill:url(#Unbenannter_Verlauf_5-2);}.cls-4{fill:#d7543d;}.cls-5{fill:url(#Unbenannter_Verlauf_4);}.cls-6{fill:#ebae97;}.cls-7{fill:none;stroke:#1e1e1c;}.cls-17,.cls-24,.cls-31,.cls-38,.cls-7,.cls-8{stroke-miterlimit:10;stroke-width:2px;}.cls-10,.cls-17,.cls-24,.cls-31,.cls-38,.cls-8{fill:#fff;}.cls-8{stroke:#ebae97;}.cls-9{fill:#1e1e1c;}.cls-11{fill:url(#Unbenannter_Verlauf_3);}.cls-12{fill:url(#Unbenannter_Verlauf_3-2);}.cls-13{fill:url(#Unbenannter_Verlauf_3-3);}.cls-14{fill:#479b76;}.cls-15{fill:url(#Unbenannter_Verlauf_2);}.cls-16{fill:#a2cdba;}.cls-17{stroke:#a2cdba;}.cls-18{fill:#eee362;}.cls-19{fill:url(#Unbenannter_Verlauf_19);}.cls-20{fill:url(#Unbenannter_Verlauf_19-2);}.cls-21{fill:url(#Unbenannter_Verlauf_19-3);}.cls-22{fill:url(#Unbenannter_Verlauf_17);}.cls-23{fill:#f4f0b8;}.cls-24{stroke:#f4f0b8;}.cls-25{fill:url(#Unbenannter_Verlauf_16);}.cls-26{fill:url(#Unbenannter_Verlauf_16-2);}.cls-27{fill:url(#Unbenannter_Verlauf_16-3);}.cls-28{fill:#3075b0;}.cls-29{fill:url(#Unbenannter_Verlauf_13);}.cls-30{fill:#a1b4d6;}.cls-31{stroke:#a1b4d6;}.cls-32{fill:url(#Unbenannter_Verlauf_10);}.cls-33{fill:url(#Unbenannter_Verlauf_11);}.cls-34{fill:url(#Unbenannter_Verlauf_11-2);}.cls-35{fill:#581f47;}.cls-36{fill:url(#Unbenannter_Verlauf_12);}.cls-37{fill:#9d7e93;}.cls-38{stroke:#9d7e93;}</style><linearGradient id="Unbenannter_Verlauf_9" x1="96.34" y1="640.79" x2="101.06" y2="624.4" gradientTransform="matrix(0.96, 0.29, 0.29, -0.96, -179.98, 737.11)" gradientUnits="userSpaceOnUse"><stop offset="0" stop-color="#ebae97"/><stop offset="0.26" stop-color="#e48d76"/><stop offset="0.57" stop-color="#dc6d57"/><stop offset="0.82" stop-color="#da5a44"/><stop offset="1" stop-color="#d7543d"/></linearGradient><linearGradient id="Unbenannter_Verlauf_5" x1="125.99" y1="640.85" x2="122.44" y2="627.48" gradientTransform="matrix(0.27, 0.96, 0.96, -0.27, -517.69, 215.31)" gradientUnits="userSpaceOnUse"><stop offset="0" stop-color="#ebae97"/><stop offset="1" stop-color="#d7543d"/></linearGradient><linearGradient id="Unbenannter_Verlauf_5-2" x1="110.58" y1="647.3" x2="111.57" y2="632.64" gradientTransform="matrix(1, 0, 0, -1, 0, 793.51)" xlink:href="#Unbenannter_Verlauf_5"/><radialGradient id="Unbenannter_Verlauf_4" cx="111.95" cy="571.58" r="52.8" gradientTransform="matrix(1, 0, 0, -1, 0, 793.51)" xlink:href="#Unbenannter_Verlauf_5"/><linearGradient id="Unbenannter_Verlauf_3" x1="224.23" y1="642.64" x2="231.01" y2="619.1" gradientTransform="matrix(0.96, 0.29, 0.29, -0.96, -174.21, 699.6)" gradientUnits="userSpaceOnUse"><stop offset="0" stop-color="#a2cdba"/><stop offset="0.25" stop-color="#83bca3"/><stop offset="0.56" stop-color="#63aa8a"/><stop offset="0.82" stop-color="#4e9f7b"/><stop offset="1" stop-color="#479b76"/></linearGradient><linearGradient id="Unbenannter_Verlauf_3-2" x1="254.06" y1="639.06" x2="251.47" y2="628.45" gradientTransform="matrix(0.27, 0.96, 0.96, -0.27, -423.64, 91.97)" xlink:href="#Unbenannter_Verlauf_3"/><linearGradient id="Unbenannter_Verlauf_3-3" x1="239.9" y1="645.35" x2="239.9" y2="628.27" gradientTransform="matrix(1, 0, 0, -1, 0, 793.51)" xlink:href="#Unbenannter_Verlauf_3"/><radialGradient id="Unbenannter_Verlauf_2" cx="240.53" cy="571.05" r="52.8" gradientTransform="matrix(1, 0, 0, -1, 0, 793.51)" xlink:href="#Unbenannter_Verlauf_3"/><linearGradient id="Unbenannter_Verlauf_19" x1="297.24" y1="781.04" x2="301.16" y2="770.06" gradientTransform="matrix(0.96, 0.29, 0.29, -0.96, -212.84, 672.32)" gradientUnits="userSpaceOnUse"><stop offset="0" stop-color="#f4f0b8"/><stop offset="0.23" stop-color="#f2ec9d"/><stop offset="0.55" stop-color="#efe57e"/><stop offset="0.82" stop-color="#eee369"/><stop offset="1" stop-color="#eee262"/></linearGradient><linearGradient id="Unbenannter_Verlauf_19-2" x1="327.14" y1="781.54" x2="322.96" y2="770.82" gradientTransform="matrix(0.27, 0.96, 0.96, -0.27, -508.86, -81.54)" xlink:href="#Unbenannter_Verlauf_19"/><linearGradient id="Unbenannter_Verlauf_19-3" x1="312.03" y1="788.27" x2="312.03" y2="774.41" gradientTransform="matrix(1, 0, 0, -1, 0, 793.51)" xlink:href="#Unbenannter_Verlauf_19"/><radialGradient id="Unbenannter_Verlauf_17" cx="312.66" cy="714.16" r="52.8" gradientTransform="matrix(1, 0, 0, -1, 0, 793.51)" xlink:href="#Unbenannter_Verlauf_19"/><linearGradient id="Unbenannter_Verlauf_16" x1="48.36" y1="782.53" x2="51.7" y2="771" gradientTransform="matrix(0.96, 0.29, 0.29, -0.96, -223.64, 744.96)" gradientUnits="userSpaceOnUse"><stop offset="0" stop-color="#a1b4d6"/><stop offset="0.06" stop-color="#97aed3"/><stop offset="0.36" stop-color="#6a95c3"/><stop offset="0.62" stop-color="#4c83b8"/><stop offset="0.85" stop-color="#3679b2"/><stop offset="1" stop-color="#3075b0"/></linearGradient><linearGradient id="Unbenannter_Verlauf_16-2" x1="77.31" y1="782.04" x2="74.73" y2="771.43" gradientTransform="matrix(0.27, 0.96, 0.96, -0.27, -689.79, 158.01)" xlink:href="#Unbenannter_Verlauf_16"/><linearGradient id="Unbenannter_Verlauf_16-3" x1="63.16" y1="788.33" x2="63.16" y2="771.25" gradientTransform="matrix(1, 0, 0, -1, 0, 793.51)" xlink:href="#Unbenannter_Verlauf_16"/><radialGradient id="Unbenannter_Verlauf_13" cx="63.79" cy="714.03" r="52.8" gradientTransform="matrix(1, 0, 0, -1, 0, 793.51)" xlink:href="#Unbenannter_Verlauf_16"/><linearGradient id="Unbenannter_Verlauf_10" x1="171.65" y1="780.8" x2="175.45" y2="768.39" gradientTransform="matrix(0.96, 0.29, 0.29, -0.96, -218.33, 709.1)" gradientUnits="userSpaceOnUse"><stop offset="0" stop-color="#9d7e93"/><stop offset="0.23" stop-color="#8c667f"/><stop offset="0.75" stop-color="#673357"/><stop offset="1" stop-color="#581f47"/></linearGradient><linearGradient id="Unbenannter_Verlauf_11" x1="201.27" y1="781.49" x2="196.44" y2="769.77" gradientTransform="matrix(0.27, 0.96, 0.96, -0.27, -600.54, 39.71)" gradientUnits="userSpaceOnUse"><stop offset="0" stop-color="#9d7e93"/><stop offset="1" stop-color="#581f47"/></linearGradient><linearGradient id="Unbenannter_Verlauf_11-2" x1="185.01" y1="789.42" x2="186.73" y2="771.49" gradientTransform="matrix(1, 0, 0, -1, 0, 793.51)" xlink:href="#Unbenannter_Verlauf_11"/><radialGradient id="Unbenannter_Verlauf_12" cx="186.65" cy="714.16" r="52.8" gradientTransform="matrix(1, 0, 0, -1, 0, 793.51)" gradientUnits="userSpaceOnUse"><stop offset="0" stop-color="#9d7e93"/><stop offset="0.28" stop-color="#845b77"/><stop offset="0.58" stop-color="#6c3b5d"/><stop offset="0.83" stop-color="#5d264d"/><stop offset="1" stop-color="#581f47"/></radialGradient></defs><g id="Ebene_2" data-name="Ebene 2"><g id="Ebene_1-2" data-name="Ebene 1"><g id="Ebene_2-2" data-name="Ebene 2"><g id="Ebene_1-2-2" data-name="Ebene 1-2"><ellipse class="cls-1" cx="99.04" cy="162.1" rx="5.72" ry="12.25" transform="translate(-43 35.96) rotate(-16.97)"/><ellipse class="cls-2" cx="123.48" cy="162.1" rx="12.25" ry="5.72" transform="translate(-66.13 236.75) rotate(-74.19)"/><ellipse class="cls-3" cx="111.32" cy="157.19" rx="5.72" ry="14.61"/><ellipse class="cls-4" cx="97.94" cy="276.72" rx="5.8" ry="34.56"/><ellipse class="cls-4" cx="125.96" cy="276.72" rx="5.8" ry="34.56"/><ellipse class="cls-4" cx="163.07" cy="235.79" rx="5.8" ry="34.56" transform="translate(-110.6 150.38) rotate(-38)"/><ellipse class="cls-4" cx="56.13" cy="215.56" rx="5.8" ry="34.56" transform="translate(-107 63.89) rotate(-32.49)"/><circle class="cls-5" cx="111.95" cy="221.93" r="52.8"/><ellipse class="cls-6" cx="80.9" cy="235.8" rx="14.05" ry="6.76"/><path class="cls-7" d="M99.79,242.57s11.14,21.65,24.32,0"/><circle class="cls-8" cx="90.57" cy="208.07" r="20.64"/><circle class="cls-8" cx="131.86" cy="208.07" r="20.64"/><circle class="cls-6" cx="95.69" cy="209.54" r="14.79"/><circle class="cls-9" cx="99.12" cy="209.54" r="11.36"/><circle class="cls-6" cx="137.71" cy="209.54" r="14.79"/><circle class="cls-9" cx="141.14" cy="209.54" r="11.36"/><circle class="cls-10" cx="143.92" cy="213.04" r="5.87"/><circle class="cls-10" cx="136.1" cy="206.61" r="2.94"/><circle class="cls-10" cx="102.92" cy="213.04" r="5.87"/><circle class="cls-10" cx="95.09" cy="206.61" r="2.94"/><ellipse class="cls-6" cx="143.84" cy="235.8" rx="14.05" ry="6.76"/><ellipse class="cls-11" cx="227.63" cy="162.64" rx="5.72" ry="12.25" transform="translate(-37.56 73.52) rotate(-16.97)"/><ellipse class="cls-12" cx="252.06" cy="162.62" rx="12.25" ry="5.72" transform="translate(26.92 360.84) rotate(-74.19)"/><ellipse class="cls-13" cx="239.9" cy="157.72" rx="5.72" ry="14.61"/><ellipse class="cls-14" cx="226.53" cy="277.26" rx="5.8" ry="34.56"/><ellipse class="cls-14" cx="254.54" cy="277.26" rx="5.8" ry="34.56"/><ellipse class="cls-14" cx="293.02" cy="222.87" rx="34.56" ry="5.8" transform="translate(-66.44 302.39) rotate(-49.73)"/><ellipse class="cls-14" cx="187.72" cy="222.45" rx="5.8" ry="34.56" transform="translate(-97.16 162.73) rotate(-38)"/><circle class="cls-15" cx="240.53" cy="222.46" r="52.8"/><ellipse class="cls-16" cx="209.48" cy="236.34" rx="14.05" ry="6.76"/><path class="cls-7" d="M228.37,243.1s11.11,21.65,24.32,0"/><circle class="cls-17" cx="219.15" cy="208.6" r="20.64"/><circle class="cls-17" cx="260.44" cy="208.6" r="20.64"/><circle class="cls-16" cx="260.44" cy="202.75" r="14.79"/><circle class="cls-9" cx="263.87" cy="202.75" r="11.36"/><circle class="cls-10" cx="266.65" cy="206.25" r="5.87"/><circle class="cls-10" cx="258.83" cy="199.82" r="2.94"/><circle class="cls-16" cx="219.15" cy="202.75" r="14.79"/><circle class="cls-9" cx="222.59" cy="202.75" r="11.36"/><circle class="cls-10" cx="226.38" cy="206.25" r="5.87"/><circle class="cls-10" cx="218.56" cy="199.82" r="2.94"/><ellipse class="cls-16" cx="272.42" cy="236.34" rx="14.05" ry="6.76"/></g></g><g id="Ebene_2-3" data-name="Ebene 2"><g id="Ebene_1-2-3" data-name="Ebene 1-2"><ellipse class="cls-18" cx="298.65" cy="134.14" rx="5.8" ry="34.56"/><ellipse class="cls-18" cx="326.67" cy="134.14" rx="5.8" ry="34.56"/><ellipse class="cls-19" cx="299.77" cy="19.54" rx="5.72" ry="12.25" transform="translate(7.35 88.34) rotate(-16.97)"/><ellipse class="cls-20" cx="324.19" cy="19.52" rx="12.25" ry="5.72" transform="translate(217.09 326.12) rotate(-74.19)"/><ellipse class="cls-21" cx="312.03" cy="14.61" rx="5.72" ry="14.61"/><ellipse class="cls-18" cx="361.44" cy="99.97" rx="5.8" ry="34.56" transform="translate(-11.79 63.44) rotate(-9.87)"/><ellipse class="cls-18" cx="261.18" cy="98.27" rx="34.71" ry="5.82" transform="translate(22.62 243.06) rotate(-51.87)"/><circle class="cls-22" cx="312.66" cy="79.35" r="52.8"/><ellipse class="cls-23" cx="281.61" cy="93.22" rx="14.05" ry="6.76"/><path class="cls-7" d="M300.5,100s11.11,21.65,24.32,0"/><circle class="cls-24" cx="291.28" cy="65.49" r="20.64"/><circle class="cls-24" cx="332.57" cy="65.49" r="20.64"/><circle class="cls-23" cx="327.45" cy="65.49" r="14.79"/><circle class="cls-9" cx="324.88" cy="65.49" r="11.36"/><circle class="cls-10" cx="327.67" cy="68.99" r="5.87"/><circle class="cls-10" cx="319.84" cy="62.56" r="2.94"/><circle class="cls-23" cx="285.71" cy="65.81" r="14.79"/><circle class="cls-9" cx="283.15" cy="65.81" r="11.36"/><circle class="cls-10" cx="286.94" cy="69.31" r="5.87"/><circle class="cls-10" cx="279.11" cy="62.87" r="2.94"/><ellipse class="cls-23" cx="344.55" cy="93.22" rx="14.05" ry="6.76"/><ellipse class="cls-25" cx="50.88" cy="19.65" rx="5.72" ry="12.25" transform="translate(-3.52 15.71) rotate(-16.97)"/><ellipse class="cls-26" cx="75.32" cy="19.65" rx="12.25" ry="5.72" transform="translate(35.89 86.76) rotate(-74.19)"/><ellipse class="cls-27" cx="63.16" cy="14.74" rx="5.72" ry="14.61"/><ellipse class="cls-28" cx="49.78" cy="134.27" rx="5.8" ry="34.56"/><ellipse class="cls-28" cx="77.79" cy="134.27" rx="5.8" ry="34.56"/><ellipse class="cls-28" cx="109.73" cy="109.74" rx="5.8" ry="34.56" transform="translate(-44.3 90.82) rotate(-38)"/><ellipse class="cls-28" cx="21.77" cy="112.95" rx="34.56" ry="5.8" transform="translate(-80.64 60.56) rotate(-52)"/><circle class="cls-29" cx="63.79" cy="79.48" r="52.8"/><ellipse class="cls-30" cx="32.74" cy="93.36" rx="14.05" ry="6.76"/><path class="cls-7" d="M51.63,100.12s11.11,21.65,24.32,0"/><circle class="cls-31" cx="42.41" cy="65.62" r="20.64"/><circle class="cls-31" cx="83.69" cy="65.62" r="20.64"/><circle class="cls-30" cx="83.69" cy="70.59" r="14.79"/><circle class="cls-9" cx="84.13" cy="73.59" r="11.36"/><circle class="cls-10" cx="86.91" cy="77.09" r="5.87"/><circle class="cls-10" cx="79.08" cy="70.66" r="2.94"/><circle class="cls-30" cx="42.41" cy="70.59" r="14.79"/><circle class="cls-9" cx="42.84" cy="73.59" r="11.36"/><circle class="cls-10" cx="46.64" cy="77.09" r="5.87"/><circle class="cls-10" cx="38.81" cy="70.66" r="2.94"/><ellipse class="cls-30" cx="95.68" cy="93.36" rx="14.05" ry="6.76"/><ellipse class="cls-32" cx="173.75" cy="19.53" rx="5.72" ry="12.25" transform="translate(1.87 51.56) rotate(-16.97)"/><ellipse class="cls-33" cx="198.18" cy="19.52" rx="12.25" ry="5.72" transform="translate(125.4 204.88) rotate(-74.19)"/><ellipse class="cls-34" cx="186.02" cy="14.61" rx="5.72" ry="14.61"/><ellipse class="cls-35" cx="172.64" cy="134.14" rx="5.8" ry="34.56"/><ellipse class="cls-35" cx="200.66" cy="134.14" rx="5.8" ry="34.56"/><ellipse class="cls-35" cx="239.47" cy="76.29" rx="34.56" ry="5.8" transform="translate(23.32 204.52) rotate(-48.35)"/><ellipse class="cls-35" cx="144.62" cy="109.18" rx="34.56" ry="5.8" transform="translate(0.17 218.59) rotate(-74.19)"/><circle class="cls-36" cx="186.65" cy="79.35" r="52.8"/><ellipse class="cls-37" cx="155.6" cy="93.22" rx="14.05" ry="6.76"/><path class="cls-7" d="M174.49,100s11.11,21.65,24.32,0"/><circle class="cls-38" cx="165.27" cy="65.49" r="20.64"/><circle class="cls-38" cx="206.55" cy="65.49" r="20.64"/><circle class="cls-37" cx="165.39" cy="64.96" r="14.79"/><circle class="cls-37" cx="207.41" cy="64.96" r="14.79"/><circle class="cls-9" cx="207.84" cy="64.96" r="11.36"/><circle class="cls-10" cx="210.62" cy="68.46" r="5.87"/><circle class="cls-10" cx="202.8" cy="62.03" r="2.94"/><circle class="cls-9" cx="165.82" cy="64.96" r="11.36"/><circle class="cls-10" cx="169.62" cy="68.46" r="5.87"/><circle class="cls-10" cx="161.79" cy="62.03" r="2.94"/><ellipse class="cls-37" cx="218.54" cy="93.22" rx="14.05" ry="6.76"/></g></g></g></g></svg>