<svg xmlns="http://www.w3.org/2000/svg" viewBox="0 0 289.55 61.16"><defs><style>.cls-1{fill:#f0e443;stroke:#fff;stroke-miterlimit:10;stroke-width:2px;}.cls-2,.cls-3{fill:#1d1d1b;}.cls-3{font-size:24px;font-family:FredokaOne-Regular, Fredoka One;}</style></defs><g id="Ebene_2" data-name="Ebene 2"><g id="Ebene_1-2" data-name="Ebene 1"><rect class="cls-1" x="2.53" y="5.41" width="285" height="52" rx="5.54"/><path class="cls-2" d="M287.11,57.73c-11.31.56-22.87.94-34.46,1.35l-17.49.54-17.62.46c-5.87.17-11.81.25-17.73.38L182,60.78c-11.93.12-23.82.34-35.81.37-6,0-12,0-18-.08s-12-.12-18.06-.28c-12-.24-24.1-.67-36.09-1-24-.78-47.75-1.17-71.52-.93l-1.42,0V57.41C1.11,53,1,48.65,1,44.26S.85,35.5.74,31.12C.56,22.35.32,13.58.07,4.82L0,2.43l2.53-.07,35.53-1C49.91,1.06,61.75.89,73.6.72,97.29.44,121,.12,144.66,0S192,.1,215.73.5l17.76.29,17.77.4c11.84.24,23.69.62,35.53,1l2.76.08-.09,2.59c-.31,9.08-.65,18.11-1.1,27Zm-.64-.64-1.25-26.62c-.44-8.7-.78-17.2-1.1-25.65l2.67,2.67c-11.84.34-23.69.72-35.53,1l-17.77.39-17.76.3q-35.53.6-71.07.47C121,9.52,97.29,9.2,73.6,8.91c-11.85-.16-23.69-.33-35.54-.63l-35.53-1L5,4.82c-.25,8.76-.5,17.53-.68,26.3-.11,4.38-.16,8.76-.22,13.14S4,53,4,57.41L2.53,56c23.61.24,47.24-.15,70.62-.93,11.7-.36,23.33-.79,35-1,5.81-.17,11.65-.22,17.48-.29s11.66-.09,17.51-.08c11.71,0,23.5.25,35.26.37l17.74.33c5.92.12,11.83.2,17.81.38l17.91.45,18,.54C262,56.15,274.09,56.53,286.47,57.09Z"/><text class="cls-3" transform="translate(111.07 38.96)">NEXT</text></g></g></svg>