<svg xmlns="http://www.w3.org/2000/svg" xmlns:xlink="http://www.w3.org/1999/xlink" viewBox="0 0 637.77 176.05"><defs><style>.cls-1{fill:#ccc2c3;opacity:0.8;}.cls-2{fill:url(#Unbenannter_Verlauf_8);}.cls-3{fill:url(#Unbenannter_Verlauf_6);}.cls-4{fill:url(#Unbenannter_Verlauf_6-2);}.cls-5{fill:#d7523d;}.cls-6{fill:url(#Unbenannter_Verlauf_7);}.cls-7{fill:#ebae97;}.cls-8{fill:none;stroke:#1d1d1b;}.cls-18,.cls-25,.cls-32,.cls-39,.cls-8,.cls-9{stroke-miterlimit:10;stroke-width:2px;}.cls-11,.cls-18,.cls-25,.cls-32,.cls-39,.cls-9{fill:#fff;}.cls-9{stroke:#ebae97;}.cls-10{fill:#1d1d1b;}.cls-12{fill:url(#Unbenannter_Verlauf_14);}.cls-13{fill:url(#Unbenannter_Verlauf_14-2);}.cls-14{fill:url(#Unbenannter_Verlauf_14-3);}.cls-15{fill:#469b76;}.cls-16{fill:url(#Unbenannter_Verlauf_15);}.cls-17{fill:#a0ccba;}.cls-18{stroke:#a0ccba;}.cls-19{fill:#eee362;}.cls-20{fill:url(#Unbenannter_Verlauf_31);}.cls-21{fill:url(#Unbenannter_Verlauf_31-2);}.cls-22{fill:url(#Unbenannter_Verlauf_31-3);}.cls-23{fill:url(#Unbenannter_Verlauf_29);}.cls-24{fill:#f4f0b8;}.cls-25{stroke:#f4f0b8;}.cls-26{fill:url(#Unbenannter_Verlauf_36);}.cls-27{fill:url(#Unbenannter_Verlauf_36-2);}.cls-28{fill:url(#Unbenannter_Verlauf_36-3);}.cls-29{fill:#2f74af;}.cls-30{fill:url(#Unbenannter_Verlauf_37);}.cls-31{fill:#a0b4d6;}.cls-32{stroke:#a0b4d6;}.cls-33{fill:url(#Unbenannter_Verlauf_22);}.cls-34{fill:url(#Unbenannter_Verlauf_23);}.cls-35{fill:url(#Unbenannter_Verlauf_24);}.cls-36{fill:#581f47;}.cls-37{fill:url(#Unbenannter_Verlauf_18);}.cls-38{fill:#9d7e93;}.cls-39{stroke:#9d7e93;}</style><linearGradient id="Unbenannter_Verlauf_8" x1="59.41" y1="10.15" x2="64.13" y2="26.54" gradientTransform="translate(8.41 -17.28) rotate(16.97)" gradientUnits="userSpaceOnUse"><stop offset="0" stop-color="#ebae97"/><stop offset="0.26" stop-color="#e48d76"/><stop offset="0.57" stop-color="#dd6d57"/><stop offset="0.82" stop-color="#d95944"/><stop offset="1" stop-color="#d7523d"/></linearGradient><linearGradient id="Unbenannter_Verlauf_6" x1="89.06" y1="10.09" x2="85.51" y2="23.46" gradientTransform="translate(81.76 -69.07) rotate(74.19)" gradientUnits="userSpaceOnUse"><stop offset="0" stop-color="#ebae97"/><stop offset="1" stop-color="#d7523d"/></linearGradient><linearGradient id="Unbenannter_Verlauf_6-2" x1="73.65" y1="3.64" x2="74.64" y2="18.3" gradientTransform="matrix(1, 0, 0, 1, 0, 0)" xlink:href="#Unbenannter_Verlauf_6"/><radialGradient id="Unbenannter_Verlauf_7" cx="75.02" cy="79.36" r="52.82" gradientTransform="matrix(1, 0, 0, 1, 0, 0)" xlink:href="#Unbenannter_Verlauf_6"/><linearGradient id="Unbenannter_Verlauf_14" x1="187.31" y1="8.29" x2="194.09" y2="31.83" gradientTransform="translate(14.17 -54.8) rotate(16.97)" gradientUnits="userSpaceOnUse"><stop offset="0" stop-color="#a0ccba"/><stop offset="0.25" stop-color="#81bba2"/><stop offset="0.56" stop-color="#61aa8a"/><stop offset="0.82" stop-color="#4d9f7b"/><stop offset="1" stop-color="#469b76"/></linearGradient><linearGradient id="Unbenannter_Verlauf_14-2" x1="217.13" y1="11.88" x2="214.54" y2="22.49" gradientTransform="translate(175.82 -192.4) rotate(74.19)" xlink:href="#Unbenannter_Verlauf_14"/><linearGradient id="Unbenannter_Verlauf_14-3" x1="202.97" y1="5.59" x2="202.97" y2="22.67" gradientTransform="matrix(1, 0, 0, 1, 0, 0)" xlink:href="#Unbenannter_Verlauf_14"/><radialGradient id="Unbenannter_Verlauf_15" cx="203.6" cy="79.89" r="52.82" gradientTransform="matrix(1, 0, 0, 1, 0, 0)" xlink:href="#Unbenannter_Verlauf_14"/><linearGradient id="Unbenannter_Verlauf_31" x1="565.33" y1="12.88" x2="569.26" y2="23.86" gradientTransform="translate(30.56 -164.91) rotate(16.97)" gradientUnits="userSpaceOnUse"><stop offset="0" stop-color="#f4f0b8"/><stop offset="0.23" stop-color="#f2ec9d"/><stop offset="0.55" stop-color="#f0e67d"/><stop offset="0.82" stop-color="#eee369"/><stop offset="1" stop-color="#eee262"/></linearGradient><linearGradient id="Unbenannter_Verlauf_31-2" x1="595.23" y1="12.38" x2="591.05" y2="23.1" gradientTransform="translate(450.08 -555.38) rotate(74.19)" xlink:href="#Unbenannter_Verlauf_31"/><linearGradient id="Unbenannter_Verlauf_31-3" x1="580.13" y1="5.65" x2="580.13" y2="19.51" gradientTransform="matrix(1, 0, 0, 1, 0, 0)" xlink:href="#Unbenannter_Verlauf_31"/><radialGradient id="Unbenannter_Verlauf_29" cx="580.76" cy="79.76" r="52.82" gradientTransform="matrix(1, 0, 0, 1, 0, 0)" xlink:href="#Unbenannter_Verlauf_31"/><linearGradient id="Unbenannter_Verlauf_36" x1="316.46" y1="11.39" x2="319.8" y2="22.92" gradientTransform="translate(19.75 -92.25) rotate(16.97)" gradientUnits="userSpaceOnUse"><stop offset="0" stop-color="#a0b4d6"/><stop offset="0.06" stop-color="#96aed3"/><stop offset="0.36" stop-color="#6a95c3"/><stop offset="0.62" stop-color="#4a83b8"/><stop offset="0.85" stop-color="#3678b1"/><stop offset="1" stop-color="#2f74af"/></linearGradient><linearGradient id="Unbenannter_Verlauf_36-2" x1="345.41" y1="11.88" x2="342.82" y2="22.49" gradientTransform="translate(269.14 -315.82) rotate(74.19)" xlink:href="#Unbenannter_Verlauf_36"/><linearGradient id="Unbenannter_Verlauf_36-3" x1="331.25" y1="5.59" x2="331.25" y2="22.67" gradientTransform="matrix(1, 0, 0, 1, 0, 0)" xlink:href="#Unbenannter_Verlauf_36"/><radialGradient id="Unbenannter_Verlauf_37" cx="331.88" cy="79.89" r="52.82" gradientTransform="matrix(1, 0, 0, 1, 0, 0)" xlink:href="#Unbenannter_Verlauf_36"/><linearGradient id="Unbenannter_Verlauf_22" x1="439.76" y1="13.12" x2="443.55" y2="25.53" gradientTransform="translate(25.07 -128.12) rotate(16.97)" gradientUnits="userSpaceOnUse"><stop offset="0" stop-color="#9d7e93"/><stop offset="0.23" stop-color="#8b657f"/><stop offset="0.75" stop-color="#663357"/><stop offset="1" stop-color="#581f47"/></linearGradient><linearGradient id="Unbenannter_Verlauf_23" x1="469.36" y1="12.43" x2="464.54" y2="24.15" gradientTransform="translate(358.4 -434.13) rotate(74.19)" gradientUnits="userSpaceOnUse"><stop offset="0" stop-color="#9d7e93"/><stop offset="1" stop-color="#581f47"/></linearGradient><linearGradient id="Unbenannter_Verlauf_24" x1="453.1" y1="4.5" x2="454.83" y2="22.43" gradientTransform="matrix(1, 0, 0, 1, 0, 0)" xlink:href="#Unbenannter_Verlauf_23"/><radialGradient id="Unbenannter_Verlauf_18" cx="454.74" cy="79.76" r="52.82" gradientUnits="userSpaceOnUse"><stop offset="0" stop-color="#9d7e93"/><stop offset="0.28" stop-color="#835a76"/><stop offset="0.58" stop-color="#6b3a5c"/><stop offset="0.83" stop-color="#5d264d"/><stop offset="1" stop-color="#581f47"/></radialGradient></defs><g id="Ebene_2" data-name="Ebene 2"><g id="Ebene_1-2" data-name="Ebene 1"><ellipse class="cls-1" cx="319.85" cy="168.71" rx="40.49" ry="7.34"/><ellipse class="cls-1" cx="445.58" cy="168.71" rx="40.49" ry="7.34"/><ellipse class="cls-1" cx="572.31" cy="167.14" rx="40.49" ry="7.34"/><ellipse class="cls-1" cx="193.44" cy="168.71" rx="40.49" ry="7.34"/><ellipse class="cls-1" cx="65.14" cy="167.14" rx="40.49" ry="7.34"/><ellipse class="cls-2" cx="62.11" cy="19.53" rx="5.72" ry="12.25" transform="translate(-3 18.98) rotate(-16.97)"/><ellipse class="cls-3" cx="86.55" cy="19.53" rx="12.25" ry="5.72" transform="translate(44.18 97.49) rotate(-74.19)"/><ellipse class="cls-4" cx="74.39" cy="14.62" rx="5.72" ry="14.61"/><ellipse class="cls-5" cx="61.01" cy="134.15" rx="5.8" ry="34.56"/><ellipse class="cls-5" cx="89.03" cy="134.15" rx="5.8" ry="34.56"/><ellipse class="cls-5" cx="126.14" cy="93.23" rx="5.8" ry="34.56" transform="translate(-30.66 97.42) rotate(-38)"/><ellipse class="cls-5" cx="19.2" cy="73" rx="5.8" ry="34.56" transform="translate(-36.21 21.73) rotate(-32.49)"/><circle class="cls-6" cx="75.02" cy="79.36" r="52.8"/><ellipse class="cls-7" cx="43.97" cy="93.23" rx="14.05" ry="6.76"/><path class="cls-8" d="M62.86,100S74,121.65,87.18,100"/><circle class="cls-9" cx="53.64" cy="65.5" r="20.64"/><circle class="cls-9" cx="94.93" cy="65.5" r="20.64"/><circle class="cls-7" cx="58.76" cy="66.97" r="14.79"/><circle class="cls-10" cx="62.19" cy="66.97" r="11.36"/><circle class="cls-7" cx="100.78" cy="66.97" r="14.79"/><circle class="cls-10" cx="104.21" cy="66.97" r="11.36"/><circle class="cls-11" cx="106.99" cy="70.47" r="5.87"/><circle class="cls-11" cx="99.17" cy="64.04" r="2.94"/><circle class="cls-11" cx="65.99" cy="70.47" r="5.87"/><circle class="cls-11" cx="58.16" cy="64.04" r="2.94"/><ellipse class="cls-7" cx="106.91" cy="93.23" rx="14.05" ry="6.76"/><ellipse class="cls-12" cx="190.7" cy="20.06" rx="5.72" ry="12.25" transform="translate(2.45 56.55) rotate(-16.97)"/><ellipse class="cls-13" cx="215.14" cy="20.06" rx="12.25" ry="5.72" transform="translate(137.21 221.59) rotate(-74.19)"/><ellipse class="cls-14" cx="202.97" cy="15.15" rx="5.72" ry="14.61"/><ellipse class="cls-15" cx="189.6" cy="134.69" rx="5.8" ry="34.56"/><ellipse class="cls-15" cx="217.61" cy="134.69" rx="5.8" ry="34.56"/><ellipse class="cls-15" cx="256.08" cy="80.29" rx="34.56" ry="5.8" transform="translate(29.3 223.8) rotate(-49.73)"/><ellipse class="cls-15" cx="150.79" cy="79.89" rx="5.8" ry="34.56" transform="translate(-17.22 109.77) rotate(-38)"/><circle class="cls-16" cx="203.6" cy="79.89" r="52.8"/><ellipse class="cls-17" cx="172.55" cy="93.77" rx="14.05" ry="6.76"/><path class="cls-8" d="M191.44,100.53s11.11,21.65,24.32,0"/><circle class="cls-18" cx="182.22" cy="66.03" r="20.64"/><circle class="cls-18" cx="223.51" cy="66.03" r="20.64"/><circle class="cls-17" cx="223.51" cy="60.18" r="14.79"/><circle class="cls-10" cx="226.94" cy="60.18" r="11.36"/><circle class="cls-11" cx="229.72" cy="63.68" r="5.87"/><circle class="cls-11" cx="221.9" cy="57.25" r="2.94"/><circle class="cls-17" cx="182.22" cy="60.18" r="14.79"/><circle class="cls-10" cx="185.66" cy="60.18" r="11.36"/><circle class="cls-11" cx="189.45" cy="63.68" r="5.87"/><circle class="cls-11" cx="181.63" cy="57.25" r="2.94"/><ellipse class="cls-17" cx="235.49" cy="93.77" rx="14.05" ry="6.76"/><ellipse class="cls-19" cx="566.75" cy="134.55" rx="5.8" ry="34.56"/><ellipse class="cls-19" cx="594.76" cy="134.55" rx="5.8" ry="34.56"/><ellipse class="cls-20" cx="567.85" cy="19.93" rx="5.72" ry="12.25" transform="translate(18.92 166.65) rotate(-16.97)"/><ellipse class="cls-21" cx="592.29" cy="19.93" rx="12.25" ry="5.72" transform="translate(411.72 584.38) rotate(-74.19)"/><ellipse class="cls-22" cx="580.13" cy="15.02" rx="5.72" ry="14.61"/><ellipse class="cls-19" cx="629.54" cy="100.4" rx="5.8" ry="34.56" transform="translate(-7.89 109.37) rotate(-9.87)"/><ellipse class="cls-19" cx="527.94" cy="98.78" rx="34.56" ry="5.8" transform="translate(125.07 453.99) rotate(-52)"/><circle class="cls-23" cx="580.76" cy="79.76" r="52.8"/><ellipse class="cls-24" cx="549.7" cy="93.63" rx="14.05" ry="6.76"/><path class="cls-8" d="M568.6,100.4s11.11,21.65,24.32,0"/><circle class="cls-25" cx="559.38" cy="65.9" r="20.64"/><circle class="cls-25" cx="600.66" cy="65.9" r="20.64"/><circle class="cls-24" cx="595.55" cy="65.9" r="14.79"/><circle class="cls-10" cx="592.98" cy="65.9" r="11.36"/><circle class="cls-11" cx="595.76" cy="69.4" r="5.87"/><circle class="cls-11" cx="587.93" cy="62.97" r="2.94"/><circle class="cls-24" cx="553.81" cy="66.22" r="14.79"/><circle class="cls-10" cx="551.24" cy="66.22" r="11.36"/><circle class="cls-11" cx="555.03" cy="69.72" r="5.87"/><circle class="cls-11" cx="547.21" cy="63.29" r="2.94"/><ellipse class="cls-24" cx="612.65" cy="93.63" rx="14.05" ry="6.76"/><ellipse class="cls-26" cx="318.98" cy="20.06" rx="5.72" ry="12.25" transform="translate(8.04 94) rotate(-16.97)"/><ellipse class="cls-27" cx="343.41" cy="20.06" rx="12.25" ry="5.72" transform="translate(230.53 345.01) rotate(-74.19)"/><ellipse class="cls-28" cx="331.25" cy="15.15" rx="5.72" ry="14.61"/><ellipse class="cls-29" cx="317.87" cy="134.69" rx="5.8" ry="34.56"/><ellipse class="cls-29" cx="345.89" cy="134.69" rx="5.8" ry="34.56"/><ellipse class="cls-29" cx="377.82" cy="110.15" rx="5.8" ry="34.56" transform="translate(12.28 255.96) rotate(-38)"/><ellipse class="cls-29" cx="289.86" cy="113.36" rx="34.56" ry="5.8" transform="translate(22.08 271.98) rotate(-52)"/><circle class="cls-30" cx="331.88" cy="79.89" r="52.8"/><ellipse class="cls-31" cx="300.83" cy="93.77" rx="14.05" ry="6.76"/><path class="cls-8" d="M319.72,100.53s11.11,21.65,24.32,0"/><circle class="cls-32" cx="310.5" cy="66.03" r="20.64"/><circle class="cls-32" cx="351.79" cy="66.03" r="20.64"/><circle class="cls-31" cx="351.79" cy="71" r="14.79"/><circle class="cls-10" cx="352.22" cy="74" r="11.36"/><circle class="cls-11" cx="355" cy="77.5" r="5.87"/><circle class="cls-11" cx="347.17" cy="71.07" r="2.94"/><circle class="cls-31" cx="310.5" cy="71" r="14.79"/><circle class="cls-10" cx="310.93" cy="74" r="11.36"/><circle class="cls-11" cx="314.73" cy="77.5" r="5.87"/><circle class="cls-11" cx="306.9" cy="71.07" r="2.94"/><ellipse class="cls-31" cx="363.77" cy="93.77" rx="14.05" ry="6.76"/><ellipse class="cls-33" cx="441.84" cy="19.93" rx="5.72" ry="12.25" transform="translate(13.43 129.86) rotate(-16.97)"/><ellipse class="cls-34" cx="466.27" cy="19.93" rx="12.25" ry="5.72" transform="translate(320.05 463.13) rotate(-74.19)"/><ellipse class="cls-35" cx="454.11" cy="15.02" rx="5.72" ry="14.61"/><ellipse class="cls-36" cx="440.73" cy="134.55" rx="5.8" ry="34.56"/><ellipse class="cls-36" cx="468.75" cy="134.55" rx="5.8" ry="34.56"/><ellipse class="cls-36" cx="507.56" cy="76.71" rx="34.56" ry="5.8" transform="translate(112.92 404.97) rotate(-48.35)"/><ellipse class="cls-36" cx="412.72" cy="109.6" rx="34.56" ry="5.8" transform="translate(194.81 476.84) rotate(-74.19)"/><circle class="cls-37" cx="454.74" cy="79.76" r="52.8"/><ellipse class="cls-38" cx="423.69" cy="93.63" rx="14.05" ry="6.76"/><path class="cls-8" d="M442.58,100.4s11.11,21.65,24.32,0"/><circle class="cls-39" cx="433.36" cy="65.9" r="20.64"/><circle class="cls-39" cx="474.65" cy="65.9" r="20.64"/><circle class="cls-38" cx="433.48" cy="65.37" r="14.79"/><circle class="cls-38" cx="475.5" cy="65.37" r="14.79"/><circle class="cls-10" cx="475.93" cy="65.37" r="11.36"/><circle class="cls-11" cx="478.72" cy="68.87" r="5.87"/><circle class="cls-11" cx="470.89" cy="62.44" r="2.94"/><circle class="cls-10" cx="433.91" cy="65.37" r="11.36"/><circle class="cls-11" cx="437.71" cy="68.87" r="5.87"/><circle class="cls-11" cx="429.88" cy="62.44" r="2.94"/><ellipse class="cls-38" cx="486.63" cy="93.63" rx="14.05" ry="6.76"/></g></g></svg>